<?xml version="1.0" encoding="UTF-8" standalone="no"?><svg xmlns="http://www.w3.org/2000/svg" xmlns:xlink="http://www.w3.org/1999/xlink" contentScriptType="application/ecmascript" contentStyleType="text/css" height="590px" preserveAspectRatio="none" style="width:396px;height:590px;" version="1.1" viewBox="0 0 396 590" width="396px" zoomAndPan="magnify"><defs><filter height="300%" id="f1q13mr5y60a40" width="300%" x="-1" y="-1"><feGaussianBlur result="blurOut" stdDeviation="2.0"/><feColorMatrix in="blurOut" result="blurOut2" type="matrix" values="0 0 0 0 0 0 0 0 0 0 0 0 0 0 0 0 0 0 .4 0"/><feOffset dx="4.0" dy="4.0" in="blurOut2" result="blurOut3"/><feBlend in="SourceGraphic" in2="blurOut3" mode="normal"/></filter></defs><g><!--MD5=[3fd616f346a44cd59a91eb10b19e157c]
class User--><rect fill="#FEFECE" filter="url(#f1q13mr5y60a40)" height="176.0469" id="User" style="stroke: #A80036; stroke-width: 1.5;" width="205" x="6" y="206"/><ellipse cx="89.75" cy="222" fill="#ADD1B2" rx="11" ry="11" style="stroke: #A80036; stroke-width: 1.0;"/><path d="M92.7188,227.6406 Q92.1406,227.9375 91.5,228.0859 Q90.8594,228.2344 90.1563,228.2344 Q87.6563,228.2344 86.3359,226.5859 Q85.0156,224.9375 85.0156,221.8125 Q85.0156,218.6875 86.3359,217.0313 Q87.6563,215.375 90.1563,215.375 Q90.8594,215.375 91.5078,215.5313 Q92.1563,215.6875 92.7188,215.9844 L92.7188,218.7031 Q92.0938,218.125 91.5,217.8516 Q90.9063,217.5781 90.2813,217.5781 Q88.9375,217.5781 88.25,218.6484 Q87.5625,219.7188 87.5625,221.8125 Q87.5625,223.9063 88.25,224.9766 Q88.9375,226.0469 90.2813,226.0469 Q90.9063,226.0469 91.5,225.7734 Q92.0938,225.5 92.7188,224.9219 L92.7188,227.6406 Z "/><text fill="#000000" font-family="sans-serif" font-size="12" lengthAdjust="spacingAndGlyphs" textLength="29" x="110.25" y="226.1543">User</text><line style="stroke: #A80036; stroke-width: 1.5;" x1="7" x2="210" y1="238" y2="238"/><rect fill="none" height="6" style="stroke: #C82930; stroke-width: 1.0;" width="6" x="14" y="246"/><text fill="#000000" font-family="sans-serif" font-size="11" lengthAdjust="spacingAndGlyphs" textLength="133" x="26" y="252.2104">current_balance:double</text><rect fill="none" height="6" style="stroke: #C82930; stroke-width: 1.0;" width="6" x="14" y="258.8047"/><text fill="#000000" font-family="sans-serif" font-size="11" lengthAdjust="spacingAndGlyphs" textLength="100" x="26" y="265.0151">First_name:string</text><rect fill="none" height="6" style="stroke: #C82930; stroke-width: 1.0;" width="6" x="14" y="271.6094"/><text fill="#000000" font-family="sans-serif" font-size="11" lengthAdjust="spacingAndGlyphs" textLength="99" x="26" y="277.8198">Last_name:string</text><rect fill="none" height="6" style="stroke: #C82930; stroke-width: 1.0;" width="6" x="14" y="284.4141"/><text fill="#000000" font-family="sans-serif" font-size="11" lengthAdjust="spacingAndGlyphs" textLength="96" x="26" y="290.6245">Card_Number:int</text><rect fill="none" height="6" style="stroke: #C82930; stroke-width: 1.0;" width="6" x="14" y="297.2188"/><text fill="#000000" font-family="sans-serif" font-size="11" lengthAdjust="spacingAndGlyphs" textLength="106" x="26" y="303.4292">Expiration_Date:int</text><rect fill="none" height="6" style="stroke: #C82930; stroke-width: 1.0;" width="6" x="14" y="310.0234"/><text fill="#000000" font-family="sans-serif" font-size="11" lengthAdjust="spacingAndGlyphs" textLength="87" x="26" y="316.2339">PIN_Number:int</text><rect fill="none" height="6" style="stroke: #C82930; stroke-width: 1.0;" width="6" x="14" y="322.8281"/><text fill="#000000" font-family="sans-serif" font-size="11" lengthAdjust="spacingAndGlyphs" textLength="113" x="26" y="329.0386">Account_Number:int</text><line style="stroke: #A80036; stroke-width: 1.5;" x1="7" x2="210" y1="335.6328" y2="335.6328"/><text fill="#000000" font-family="sans-serif" font-size="11" lengthAdjust="spacingAndGlyphs" textLength="175" x="12" y="349.8433">Make_Deposit(double: amount)</text><text fill="#000000" font-family="sans-serif" font-size="11" lengthAdjust="spacingAndGlyphs" textLength="193" x="12" y="362.6479">Make_Withdrawal(double: amount)</text><text fill="#000000" font-family="sans-serif" font-size="11" lengthAdjust="spacingAndGlyphs" textLength="93" x="12" y="375.4526">Check_Balance()</text><!--MD5=[ca2d93c45117619035e2f39704bd7f41]
class Validator--><rect fill="#FEFECE" filter="url(#f1q13mr5y60a40)" height="137.6328" id="Validator" style="stroke: #A80036; stroke-width: 1.5;" width="248" x="83.5" y="442"/><ellipse cx="175.25" cy="458" fill="#ADD1B2" rx="11" ry="11" style="stroke: #A80036; stroke-width: 1.0;"/><path d="M178.2188,463.6406 Q177.6406,463.9375 177,464.0859 Q176.3594,464.2344 175.6563,464.2344 Q173.1563,464.2344 171.8359,462.5859 Q170.5156,460.9375 170.5156,457.8125 Q170.5156,454.6875 171.8359,453.0313 Q173.1563,451.375 175.6563,451.375 Q176.3594,451.375 177.0078,451.5313 Q177.6563,451.6875 178.2188,451.9844 L178.2188,454.7031 Q177.5938,454.125 177,453.8516 Q176.4063,453.5781 175.7813,453.5781 Q174.4375,453.5781 173.75,454.6484 Q173.0625,455.7188 173.0625,457.8125 Q173.0625,459.9063 173.75,460.9766 Q174.4375,462.0469 175.7813,462.0469 Q176.4063,462.0469 177,461.7734 Q177.5938,461.5 178.2188,460.9219 L178.2188,463.6406 Z "/><text fill="#000000" font-family="sans-serif" font-size="12" lengthAdjust="spacingAndGlyphs" textLength="56" x="195.75" y="462.1543">Validator</text><line style="stroke: #A80036; stroke-width: 1.5;" x1="84.5" x2="330.5" y1="474" y2="474"/><line style="stroke: #A80036; stroke-width: 1.5;" x1="84.5" x2="330.5" y1="482" y2="482"/><text fill="#000000" font-family="sans-serif" font-size="11" lengthAdjust="spacingAndGlyphs" textLength="236" x="89.5" y="496.2104">Valid_Card_Numbers(bool: Card_Number)</text><text fill="#000000" font-family="sans-serif" font-size="11" lengthAdjust="spacingAndGlyphs" textLength="87" x="89.5" y="509.0151">Set_UI_Option()</text><text fill="#000000" font-family="sans-serif" font-size="11" lengthAdjust="spacingAndGlyphs" textLength="78" x="89.5" y="521.8198">Request_PIN()</text><text fill="#000000" font-family="sans-serif" font-size="11" lengthAdjust="spacingAndGlyphs" textLength="142" x="89.5" y="534.6245">Set_PIN(int: PIN_Number)</text><text fill="#000000" font-family="sans-serif" font-size="11" lengthAdjust="spacingAndGlyphs" textLength="103" x="89.5" y="547.4292">Get_PIN_Number()</text><text fill="#000000" font-family="sans-serif" font-size="11" lengthAdjust="spacingAndGlyphs" textLength="102" x="89.5" y="560.2339">Failed_Validation()</text><text fill="#000000" font-family="sans-serif" font-size="11" lengthAdjust="spacingAndGlyphs" textLength="77" x="89.5" y="573.0386">Validate_PIN()</text><!--MD5=[df76e760f2062188d44f98c21a88999b]
class UI--><rect fill="#FEFECE" filter="url(#f1q13mr5y60a40)" height="137.6328" id="UI" style="stroke: #A80036; stroke-width: 1.5;" width="130" x="53.5" y="8"/><ellipse cx="108.25" cy="24" fill="#ADD1B2" rx="11" ry="11" style="stroke: #A80036; stroke-width: 1.0;"/><path d="M111.2188,29.6406 Q110.6406,29.9375 110,30.0859 Q109.3594,30.2344 108.6563,30.2344 Q106.1563,30.2344 104.8359,28.5859 Q103.5156,26.9375 103.5156,23.8125 Q103.5156,20.6875 104.8359,19.0313 Q106.1563,17.375 108.6563,17.375 Q109.3594,17.375 110.0078,17.5313 Q110.6563,17.6875 111.2188,17.9844 L111.2188,20.7031 Q110.5938,20.125 110,19.8516 Q109.4063,19.5781 108.7813,19.5781 Q107.4375,19.5781 106.75,20.6484 Q106.0625,21.7188 106.0625,23.8125 Q106.0625,25.9063 106.75,26.9766 Q107.4375,28.0469 108.7813,28.0469 Q109.4063,28.0469 110,27.7734 Q110.5938,27.5 111.2188,26.9219 L111.2188,29.6406 Z "/><text fill="#000000" font-family="sans-serif" font-size="12" lengthAdjust="spacingAndGlyphs" textLength="12" x="128.75" y="28.1543">UI</text><line style="stroke: #A80036; stroke-width: 1.5;" x1="54.5" x2="182.5" y1="40" y2="40"/><line style="stroke: #A80036; stroke-width: 1.5;" x1="54.5" x2="182.5" y1="48" y2="48"/><text fill="#000000" font-family="sans-serif" font-size="11" lengthAdjust="spacingAndGlyphs" textLength="77" x="59.5" y="62.2104">Lock_Server()</text><text fill="#000000" font-family="sans-serif" font-size="11" lengthAdjust="spacingAndGlyphs" textLength="86" x="59.5" y="75.0151">Make_Deposit()</text><text fill="#000000" font-family="sans-serif" font-size="11" lengthAdjust="spacingAndGlyphs" textLength="118" x="59.5" y="87.8198">Deposit_Completed()</text><text fill="#000000" font-family="sans-serif" font-size="11" lengthAdjust="spacingAndGlyphs" textLength="104" x="59.5" y="100.6245">Make_Withdrawal()</text><text fill="#000000" font-family="sans-serif" font-size="11" lengthAdjust="spacingAndGlyphs" textLength="108" x="59.5" y="113.4292">Failed_Withdrawal()</text><text fill="#000000" font-family="sans-serif" font-size="11" lengthAdjust="spacingAndGlyphs" textLength="93" x="59.5" y="126.2339">Check_Balance()</text><text fill="#000000" font-family="sans-serif" font-size="11" lengthAdjust="spacingAndGlyphs" textLength="102" x="59.5" y="139.0386">Current_Balance()</text><!--MD5=[04de7c890e4fe65d01f21f05be855472]
class Bank_server--><rect fill="#FEFECE" filter="url(#f1q13mr5y60a40)" height="137.6328" id="Bank_server" style="stroke: #A80036; stroke-width: 1.5;" width="120" x="246.5" y="225"/><ellipse cx="266.9" cy="241" fill="#ADD1B2" rx="11" ry="11" style="stroke: #A80036; stroke-width: 1.0;"/><path d="M269.8688,246.6406 Q269.2906,246.9375 268.65,247.0859 Q268.0094,247.2344 267.3063,247.2344 Q264.8063,247.2344 263.4859,245.5859 Q262.1656,243.9375 262.1656,240.8125 Q262.1656,237.6875 263.4859,236.0313 Q264.8063,234.375 267.3063,234.375 Q268.0094,234.375 268.6578,234.5313 Q269.3063,234.6875 269.8688,234.9844 L269.8688,237.7031 Q269.2438,237.125 268.65,236.8516 Q268.0563,236.5781 267.4313,236.5781 Q266.0875,236.5781 265.4,237.6484 Q264.7125,238.7188 264.7125,240.8125 Q264.7125,242.9063 265.4,243.9766 Q266.0875,245.0469 267.4313,245.0469 Q268.0563,245.0469 268.65,244.7734 Q269.2438,244.5 269.8688,243.9219 L269.8688,246.6406 Z "/><text fill="#000000" font-family="sans-serif" font-size="12" lengthAdjust="spacingAndGlyphs" textLength="76" x="282.1" y="245.1543">Bank_server</text><line style="stroke: #A80036; stroke-width: 1.5;" x1="247.5" x2="365.5" y1="257" y2="257"/><text fill="#000000" font-family="sans-serif" font-size="11" lengthAdjust="spacingAndGlyphs" textLength="96" x="252.5" y="271.2104">Lock_Status:bool</text><line style="stroke: #A80036; stroke-width: 1.5;" x1="247.5" x2="365.5" y1="277.8047" y2="277.8047"/><text fill="#000000" font-family="sans-serif" font-size="11" lengthAdjust="spacingAndGlyphs" textLength="68" x="252.5" y="292.0151">Invalid_PIN()</text><text fill="#000000" font-family="sans-serif" font-size="11" lengthAdjust="spacingAndGlyphs" textLength="76" x="252.5" y="304.8198">Set_Amount()</text><text fill="#000000" font-family="sans-serif" font-size="11" lengthAdjust="spacingAndGlyphs" textLength="47" x="252.5" y="317.6245">Locked()</text><text fill="#000000" font-family="sans-serif" font-size="11" lengthAdjust="spacingAndGlyphs" textLength="59" x="252.5" y="330.4292">Unlocked()</text><text fill="#000000" font-family="sans-serif" font-size="11" lengthAdjust="spacingAndGlyphs" textLength="108" x="252.5" y="343.2339">Withdraw_Amount()</text><text fill="#000000" font-family="sans-serif" font-size="11" lengthAdjust="spacingAndGlyphs" textLength="77" x="252.5" y="356.0386">Get_Amount()</text><!--MD5=[05bda8ea6cc5407b20a321ffa750bafe]
class Bank_Account--><rect fill="#FEFECE" filter="url(#f1q13mr5y60a40)" height="99.2188" id="Bank_Account" style="stroke: #A80036; stroke-width: 1.5;" width="158" x="227.5" y="27.5"/><ellipse cx="259.6" cy="43.5" fill="#ADD1B2" rx="11" ry="11" style="stroke: #A80036; stroke-width: 1.0;"/><path d="M262.5688,49.1406 Q261.9906,49.4375 261.35,49.5859 Q260.7094,49.7344 260.0063,49.7344 Q257.5063,49.7344 256.1859,48.0859 Q254.8656,46.4375 254.8656,43.3125 Q254.8656,40.1875 256.1859,38.5313 Q257.5063,36.875 260.0063,36.875 Q260.7094,36.875 261.3578,37.0313 Q262.0063,37.1875 262.5688,37.4844 L262.5688,40.2031 Q261.9438,39.625 261.35,39.3516 Q260.7563,39.0781 260.1313,39.0781 Q258.7875,39.0781 258.1,40.1484 Q257.4125,41.2188 257.4125,43.3125 Q257.4125,45.4063 258.1,46.4766 Q258.7875,47.5469 260.1313,47.5469 Q260.7563,47.5469 261.35,47.2734 Q261.9438,47 262.5688,46.4219 L262.5688,49.1406 Z "/><text fill="#000000" font-family="sans-serif" font-size="12" lengthAdjust="spacingAndGlyphs" textLength="88" x="277.4" y="47.6543">Bank_Account</text><line style="stroke: #A80036; stroke-width: 1.5;" x1="228.5" x2="384.5" y1="59.5" y2="59.5"/><rect fill="none" height="6" style="stroke: #C82930; stroke-width: 1.0;" width="6" x="235.5" y="67.5"/><text fill="#000000" font-family="sans-serif" font-size="11" lengthAdjust="spacingAndGlyphs" textLength="132" x="247.5" y="73.7104">current_amount:double</text><line style="stroke: #A80036; stroke-width: 1.5;" x1="228.5" x2="384.5" y1="80.3047" y2="80.3047"/><text fill="#000000" font-family="sans-serif" font-size="11" lengthAdjust="spacingAndGlyphs" textLength="118" x="233.5" y="94.5151">Completed_Deposit()</text><text fill="#000000" font-family="sans-serif" font-size="11" lengthAdjust="spacingAndGlyphs" textLength="108" x="233.5" y="107.3198">Withdraw_Amount()</text><text fill="#000000" font-family="sans-serif" font-size="11" lengthAdjust="spacingAndGlyphs" textLength="93" x="233.5" y="120.1245">Check_Balance()</text><!--MD5=[9d784962c574207279c9db46e7f87c59]
reverse link User to Validator--><path d="M154.3223,394.4388 C161.6281,410.4524 169.0413,426.7016 175.9206,441.7805 " fill="none" id="User&lt;-Validator" style="stroke: #A80036; stroke-width: 1.0;"/><polygon fill="#FFFFFF" points="148.7671,382.2622,147.6184,389.3812,153.748,393.1796,154.8967,386.0606,148.7671,382.2622" style="stroke: #A80036; stroke-width: 1.0;"/><!--MD5=[640e045cbdf61da595e552bea370c78a]
reverse link UI to Bank_server--><path d="M187.0231,156.0932 C206.4789,178.5501 227.5096,202.8249 246.4239,224.6569 " fill="none" id="UI&lt;-Bank_server" style="stroke: #A80036; stroke-width: 1.0;"/><polygon fill="#FFFFFF" points="178.5013,146.2568,179.4069,153.4108,186.3589,155.3264,185.4533,148.1724,178.5013,146.2568" style="stroke: #A80036; stroke-width: 1.0;"/><!--MD5=[a63903448892fdcf64b5dbbaefff4f88]
reverse link UI to User--><path d="M114.7024,159.4081 C114.0012,174.6236 113.2665,190.5668 112.558,205.9419 " fill="none" id="UI&lt;-User" style="stroke: #A80036; stroke-width: 1.0;"/><polygon fill="#FFFFFF" points="115.3084,146.2568,111.0364,152.0663,114.7559,158.2441,119.0279,152.4346,115.3084,146.2568" style="stroke: #A80036; stroke-width: 1.0;"/><!--MD5=[f945d5f2cba2bab7dc7124753a510a72]
reverse link Bank_server to Validator--><path d="M269.4488,375.2132 C259.4765,397.0716 248.7834,420.5102 239.1358,441.6569 " fill="none" id="Bank_server&lt;-Validator" style="stroke: #A80036; stroke-width: 1.0;"/><polygon fill="#FFFFFF" points="274.9036,363.2568,268.774,367.0553,269.9228,374.1743,276.0524,370.3758,274.9036,363.2568" style="stroke: #A80036; stroke-width: 1.0;"/><!--MD5=[9509d33f1f4cd4242b001286942f80ff]
reverse link Bank_Account to Bank_server--><path d="M306.5,139.6202 C306.5,166.3304 306.5,197.5877 306.5,224.9642 " fill="none" id="Bank_Account&lt;-Bank_server" style="stroke: #A80036; stroke-width: 1.0;"/><polygon fill="#FFFFFF" points="306.5,126.5122,302.5,132.5122,306.5,138.5122,310.5,132.5122,306.5,126.5122" style="stroke: #A80036; stroke-width: 1.0;"/><!--MD5=[a0c642ac4c73fff4663db2ea2467e2ff]
@startuml
class User{
  -current_balance:double
  -First_name:string
  -Last_name:string
  -Card_Number:int
  -Expiration_Date:int
  -PIN_Number:int
  -Account_Number:int
  Make_Deposit(double: amount)
  Make_Withdrawal(double: amount)
  Check_Balance()
}
class Validator{
  Valid_Card_Numbers(bool: Card_Number)
  Set_UI_Option()
  Request_PIN()
  Set_PIN(int: PIN_Number)
  Get_PIN_Number()
  Failed_Validation()
  Validate_PIN()
  }
class UI {
  Lock_Server()
  Make_Deposit()
  Deposit_Completed()
  Make_Withdrawal()
  Failed_Withdrawal()
  Check_Balance()
  Current_Balance()
  }
class Bank_server {
  Lock_Status:bool
 Invalid_PIN()
  Set_Amount()
  Locked()
  Unlocked()
  Withdraw_Amount()
  Get_Amount()
}
class Bank_Account {
  -current_amount:double
Completed_Deposit()
  Withdraw_Amount()
  Check_Balance()
}
User o- - Validator
UI o- - Bank_server
UI o- - User
Bank_server o- - Validator
Bank_Account o- - Bank_server
@enduml

PlantUML version 1.2019.12(Sun Nov 03 10:24:54 UTC 2019)
(GPL source distribution)
Java Runtime: OpenJDK Runtime Environment
JVM: OpenJDK 64-Bit Server VM
Java Version: 1.8.0_232-heroku-b09
Operating System: Linux
Default Encoding: UTF-8
Language: en
Country: US
--></g></svg>