<?xml version="1.0" encoding="UTF-8" standalone="no"?><svg xmlns="http://www.w3.org/2000/svg" xmlns:xlink="http://www.w3.org/1999/xlink" contentScriptType="application/ecmascript" contentStyleType="text/css" height="2052px" preserveAspectRatio="none" style="width:700px;height:2052px;" version="1.1" viewBox="0 0 700 2052" width="700px" zoomAndPan="magnify"><defs><filter height="300%" id="f6ds7x07ej86g" width="300%" x="-1" y="-1"><feGaussianBlur result="blurOut" stdDeviation="2.0"/><feColorMatrix in="blurOut" result="blurOut2" type="matrix" values="0 0 0 0 0 0 0 0 0 0 0 0 0 0 0 0 0 0 .4 0"/><feOffset dx="4.0" dy="4.0" in="blurOut2" result="blurOut3"/><feBlend in="SourceGraphic" in2="blurOut3" mode="normal"/></filter></defs><g><rect fill="#FFFFFF" filter="url(#f6ds7x07ej86g)" height="582.6094" style="stroke: #A80036; stroke-width: 1.0;" width="10" x="73" y="69.4297"/><rect fill="#FFFFFF" filter="url(#f6ds7x07ej86g)" height="686.8125" style="stroke: #A80036; stroke-width: 1.0;" width="10" x="73" y="688.1719"/><rect fill="#FFFFFF" filter="url(#f6ds7x07ej86g)" height="582.6094" style="stroke: #A80036; stroke-width: 1.0;" width="10" x="73" y="1411.1172"/><rect fill="#FFFFFF" filter="url(#f6ds7x07ej86g)" height="582.6094" style="stroke: #A80036; stroke-width: 1.0;" width="10" x="224" y="69.4297"/><rect fill="#FFFFFF" filter="url(#f6ds7x07ej86g)" height="686.8125" style="stroke: #A80036; stroke-width: 1.0;" width="10" x="224" y="688.1719"/><rect fill="#FFFFFF" filter="url(#f6ds7x07ej86g)" height="582.6094" style="stroke: #A80036; stroke-width: 1.0;" width="10" x="224" y="1411.1172"/><rect fill="#FFFFFF" filter="url(#f6ds7x07ej86g)" height="397.5313" style="stroke: #A80036; stroke-width: 1.0;" width="10" x="343" y="210.5703"/><rect fill="#FFFFFF" filter="url(#f6ds7x07ej86g)" height="145.6641" style="stroke: #A80036; stroke-width: 1.0;" width="10" x="348" y="375.3672"/><rect fill="#FFFFFF" filter="url(#f6ds7x07ej86g)" height="501.7344" style="stroke: #A80036; stroke-width: 1.0;" width="10" x="343" y="829.3125"/><rect fill="#FFFFFF" filter="url(#f6ds7x07ej86g)" height="198.9297" style="stroke: #A80036; stroke-width: 1.0;" width="10" x="348" y="994.1094"/><rect fill="#FFFFFF" filter="url(#f6ds7x07ej86g)" height="397.5313" style="stroke: #A80036; stroke-width: 1.0;" width="10" x="343" y="1552.2578"/><rect fill="#FFFFFF" filter="url(#f6ds7x07ej86g)" height="145.6641" style="stroke: #A80036; stroke-width: 1.0;" width="10" x="348" y="1717.0547"/><rect fill="#FFFFFF" filter="url(#f6ds7x07ej86g)" height="203.9297" style="stroke: #A80036; stroke-width: 1.0;" width="10" x="501" y="346.2344"/><rect fill="#FFFFFF" filter="url(#f6ds7x07ej86g)" height="316.1328" style="stroke: #A80036; stroke-width: 1.0;" width="10" x="501" y="964.9766"/><rect fill="#FFFFFF" filter="url(#f6ds7x07ej86g)" height="203.9297" style="stroke: #A80036; stroke-width: 1.0;" width="10" x="501" y="1687.9219"/><rect fill="#FFFFFF" filter="url(#f6ds7x07ej86g)" height="29.1328" style="stroke: #A80036; stroke-width: 1.0;" width="10" x="585" y="462.7656"/><rect fill="#FFFFFF" filter="url(#f6ds7x07ej86g)" height="82.3984" style="stroke: #A80036; stroke-width: 1.0;" width="10" x="585" y="1081.5078"/><rect fill="#FFFFFF" filter="url(#f6ds7x07ej86g)" height="29.1328" style="stroke: #A80036; stroke-width: 1.0;" width="10" x="585" y="1804.4531"/><rect fill="#FFFFFF" filter="url(#f6ds7x07ej86g)" height="575.6094" style="stroke: #000000; stroke-width: 2.0;" width="655.5" x="23" y="84.4297"/><rect fill="#FFFFFF" height="43.9375" style="stroke: none; stroke-width: 1.0;" width="655.5" x="23" y="101.5625"/><rect fill="#FFFFFF" height="426.6641" style="stroke: none; stroke-width: 1.0;" width="655.5" x="23" y="145.5"/><rect fill="#FFFFFF" filter="url(#f6ds7x07ej86g)" height="339.5938" style="stroke: #000000; stroke-width: 2.0;" width="635.5" x="33" y="225.5703"/><rect fill="#FFFFFF" filter="url(#f6ds7x07ej86g)" height="250.1953" style="stroke: #000000; stroke-width: 2.0;" width="615.5" x="43" y="307.9688"/><rect fill="#FFFFFF" height="43.9375" style="stroke: none; stroke-width: 1.0;" width="655.5" x="23" y="572.1641"/><rect fill="#FFFFFF" height="43.9375" style="stroke: none; stroke-width: 1.0;" width="655.5" x="23" y="616.1016"/><rect fill="#FFFFFF" filter="url(#f6ds7x07ej86g)" height="679.8125" style="stroke: #000000; stroke-width: 2.0;" width="675.5" x="13" y="703.1719"/><rect fill="#FFFFFF" height="43.9375" style="stroke: none; stroke-width: 1.0;" width="675.5" x="13" y="720.3047"/><rect fill="#FFFFFF" height="530.8672" style="stroke: none; stroke-width: 1.0;" width="675.5" x="13" y="764.2422"/><rect fill="#FFFFFF" filter="url(#f6ds7x07ej86g)" height="443.7969" style="stroke: #000000; stroke-width: 2.0;" width="655.5" x="23" y="844.3125"/><rect fill="#FFFFFF" filter="url(#f6ds7x07ej86g)" height="354.3984" style="stroke: #000000; stroke-width: 2.0;" width="635.5" x="33" y="926.7109"/><rect fill="#FFFFFF" filter="url(#f6ds7x07ej86g)" height="177.6016" style="stroke: #000000; stroke-width: 2.0;" width="615.5" x="43" y="1096.5078"/><rect fill="#FFFFFF" height="43.9375" style="stroke: none; stroke-width: 1.0;" width="615.5" x="43" y="1230.1719"/><rect fill="#FFFFFF" height="43.9375" style="stroke: none; stroke-width: 1.0;" width="675.5" x="13" y="1295.1094"/><rect fill="#FFFFFF" height="43.9375" style="stroke: none; stroke-width: 1.0;" width="675.5" x="13" y="1339.0469"/><rect fill="#FFFFFF" height="43.9375" style="stroke: none; stroke-width: 1.0;" width="655.5" x="23" y="1443.25"/><rect fill="#FFFFFF" height="426.6641" style="stroke: none; stroke-width: 1.0;" width="655.5" x="23" y="1487.1875"/><rect fill="#FFFFFF" filter="url(#f6ds7x07ej86g)" height="339.5938" style="stroke: #000000; stroke-width: 2.0;" width="635.5" x="33" y="1567.2578"/><rect fill="#FFFFFF" filter="url(#f6ds7x07ej86g)" height="250.1953" style="stroke: #000000; stroke-width: 2.0;" width="615.5" x="43" y="1649.6563"/><rect fill="#FFFFFF" height="43.9375" style="stroke: none; stroke-width: 1.0;" width="655.5" x="23" y="1913.8516"/><line style="stroke: #A80036; stroke-width: 1.0; stroke-dasharray: 5.0,5.0;" x1="78" x2="78" y1="38.2969" y2="2011.7266"/><line style="stroke: #A80036; stroke-width: 1.0; stroke-dasharray: 5.0,5.0;" x1="228.5" x2="228.5" y1="38.2969" y2="2011.7266"/><line style="stroke: #A80036; stroke-width: 1.0; stroke-dasharray: 5.0,5.0;" x1="348" x2="348" y1="38.2969" y2="2011.7266"/><line style="stroke: #A80036; stroke-width: 1.0; stroke-dasharray: 5.0,5.0;" x1="505.5" x2="505.5" y1="38.2969" y2="2011.7266"/><line style="stroke: #A80036; stroke-width: 1.0; stroke-dasharray: 5.0,5.0;" x1="589.5" x2="589.5" y1="38.2969" y2="2011.7266"/><rect fill="#FEFECE" filter="url(#f6ds7x07ej86g)" height="30.2969" style="stroke: #A80036; stroke-width: 1.5;" width="46" x="53" y="3"/><text fill="#000000" font-family="sans-serif" font-size="14" lengthAdjust="spacingAndGlyphs" textLength="32" x="60" y="22.9951">User</text><rect fill="#FEFECE" filter="url(#f6ds7x07ej86g)" height="30.2969" style="stroke: #A80036; stroke-width: 1.5;" width="46" x="53" y="2010.7266"/><text fill="#000000" font-family="sans-serif" font-size="14" lengthAdjust="spacingAndGlyphs" textLength="32" x="60" y="2030.7217">User</text><rect fill="#FEFECE" filter="url(#f6ds7x07ej86g)" height="30.2969" style="stroke: #A80036; stroke-width: 1.5;" width="73" x="190.5" y="3"/><text fill="#000000" font-family="sans-serif" font-size="14" lengthAdjust="spacingAndGlyphs" textLength="59" x="197.5" y="22.9951">Validator</text><rect fill="#FEFECE" filter="url(#f6ds7x07ej86g)" height="30.2969" style="stroke: #A80036; stroke-width: 1.5;" width="73" x="190.5" y="2010.7266"/><text fill="#000000" font-family="sans-serif" font-size="14" lengthAdjust="spacingAndGlyphs" textLength="59" x="197.5" y="2030.7217">Validator</text><rect fill="#FEFECE" filter="url(#f6ds7x07ej86g)" height="30.2969" style="stroke: #A80036; stroke-width: 1.5;" width="100" x="296" y="3"/><text fill="#000000" font-family="sans-serif" font-size="14" lengthAdjust="spacingAndGlyphs" textLength="86" x="303" y="22.9951">Bank_Server</text><rect fill="#FEFECE" filter="url(#f6ds7x07ej86g)" height="30.2969" style="stroke: #A80036; stroke-width: 1.5;" width="100" x="296" y="2010.7266"/><text fill="#000000" font-family="sans-serif" font-size="14" lengthAdjust="spacingAndGlyphs" textLength="86" x="303" y="2030.7217">Bank_Server</text><rect fill="#FEFECE" filter="url(#f6ds7x07ej86g)" height="30.2969" style="stroke: #A80036; stroke-width: 1.5;" width="27" x="490.5" y="3"/><text fill="#000000" font-family="sans-serif" font-size="14" lengthAdjust="spacingAndGlyphs" textLength="13" x="497.5" y="22.9951">UI</text><rect fill="#FEFECE" filter="url(#f6ds7x07ej86g)" height="30.2969" style="stroke: #A80036; stroke-width: 1.5;" width="27" x="490.5" y="2010.7266"/><text fill="#000000" font-family="sans-serif" font-size="14" lengthAdjust="spacingAndGlyphs" textLength="13" x="497.5" y="2030.7217">UI</text><rect fill="#FEFECE" filter="url(#f6ds7x07ej86g)" height="30.2969" style="stroke: #A80036; stroke-width: 1.5;" width="113" x="531.5" y="3"/><text fill="#000000" font-family="sans-serif" font-size="14" lengthAdjust="spacingAndGlyphs" textLength="99" x="538.5" y="22.9951">Bank_Account</text><rect fill="#FEFECE" filter="url(#f6ds7x07ej86g)" height="30.2969" style="stroke: #A80036; stroke-width: 1.5;" width="113" x="531.5" y="2010.7266"/><text fill="#000000" font-family="sans-serif" font-size="14" lengthAdjust="spacingAndGlyphs" textLength="99" x="538.5" y="2030.7217">Bank_Account</text><rect fill="#FFFFFF" filter="url(#f6ds7x07ej86g)" height="582.6094" style="stroke: #A80036; stroke-width: 1.0;" width="10" x="73" y="69.4297"/><rect fill="#FFFFFF" filter="url(#f6ds7x07ej86g)" height="686.8125" style="stroke: #A80036; stroke-width: 1.0;" width="10" x="73" y="688.1719"/><rect fill="#FFFFFF" filter="url(#f6ds7x07ej86g)" height="582.6094" style="stroke: #A80036; stroke-width: 1.0;" width="10" x="73" y="1411.1172"/><rect fill="#FFFFFF" filter="url(#f6ds7x07ej86g)" height="582.6094" style="stroke: #A80036; stroke-width: 1.0;" width="10" x="224" y="69.4297"/><rect fill="#FFFFFF" filter="url(#f6ds7x07ej86g)" height="686.8125" style="stroke: #A80036; stroke-width: 1.0;" width="10" x="224" y="688.1719"/><rect fill="#FFFFFF" filter="url(#f6ds7x07ej86g)" height="582.6094" style="stroke: #A80036; stroke-width: 1.0;" width="10" x="224" y="1411.1172"/><rect fill="#FFFFFF" filter="url(#f6ds7x07ej86g)" height="397.5313" style="stroke: #A80036; stroke-width: 1.0;" width="10" x="343" y="210.5703"/><rect fill="#FFFFFF" filter="url(#f6ds7x07ej86g)" height="145.6641" style="stroke: #A80036; stroke-width: 1.0;" width="10" x="348" y="375.3672"/><rect fill="#FFFFFF" filter="url(#f6ds7x07ej86g)" height="501.7344" style="stroke: #A80036; stroke-width: 1.0;" width="10" x="343" y="829.3125"/><rect fill="#FFFFFF" filter="url(#f6ds7x07ej86g)" height="198.9297" style="stroke: #A80036; stroke-width: 1.0;" width="10" x="348" y="994.1094"/><rect fill="#FFFFFF" filter="url(#f6ds7x07ej86g)" height="397.5313" style="stroke: #A80036; stroke-width: 1.0;" width="10" x="343" y="1552.2578"/><rect fill="#FFFFFF" filter="url(#f6ds7x07ej86g)" height="145.6641" style="stroke: #A80036; stroke-width: 1.0;" width="10" x="348" y="1717.0547"/><rect fill="#FFFFFF" filter="url(#f6ds7x07ej86g)" height="203.9297" style="stroke: #A80036; stroke-width: 1.0;" width="10" x="501" y="346.2344"/><rect fill="#FFFFFF" filter="url(#f6ds7x07ej86g)" height="316.1328" style="stroke: #A80036; stroke-width: 1.0;" width="10" x="501" y="964.9766"/><rect fill="#FFFFFF" filter="url(#f6ds7x07ej86g)" height="203.9297" style="stroke: #A80036; stroke-width: 1.0;" width="10" x="501" y="1687.9219"/><rect fill="#FFFFFF" filter="url(#f6ds7x07ej86g)" height="29.1328" style="stroke: #A80036; stroke-width: 1.0;" width="10" x="585" y="462.7656"/><rect fill="#FFFFFF" filter="url(#f6ds7x07ej86g)" height="82.3984" style="stroke: #A80036; stroke-width: 1.0;" width="10" x="585" y="1081.5078"/><rect fill="#FFFFFF" filter="url(#f6ds7x07ej86g)" height="29.1328" style="stroke: #A80036; stroke-width: 1.0;" width="10" x="585" y="1804.4531"/><polygon fill="#A80036" points="212,65.4297,222,69.4297,212,73.4297,216,69.4297" style="stroke: #A80036; stroke-width: 1.0;"/><line style="stroke: #A80036; stroke-width: 1.0;" x1="83" x2="218" y1="69.4297" y2="69.4297"/><text fill="#000000" font-family="sans-serif" font-size="13" lengthAdjust="spacingAndGlyphs" textLength="99" x="90" y="64.3638">Validate_Card()</text><path d="M23,84.4297 L87,84.4297 L87,91.4297 L77,101.4297 L23,101.4297 L23,84.4297 " fill="#EEEEEE" style="stroke: #000000; stroke-width: 1.0;"/><rect fill="none" height="575.6094" style="stroke: #000000; stroke-width: 2.0;" width="655.5" x="23" y="84.4297"/><text fill="#000000" font-family="sans-serif" font-size="13" font-weight="bold" lengthAdjust="spacingAndGlyphs" textLength="19" x="38" y="97.4966">alt</text><text fill="#000000" font-family="sans-serif" font-size="11" font-weight="bold" lengthAdjust="spacingAndGlyphs" textLength="109" x="102" y="96.6401">[Validate_Card()]</text><line style="stroke: #000000; stroke-width: 1.0; stroke-dasharray: 2.0,2.0;" x1="23" x2="678.5" y1="102.5625" y2="102.5625"/><text fill="#000000" font-family="sans-serif" font-size="11" font-weight="bold" lengthAdjust="spacingAndGlyphs" textLength="107" x="28" y="112.7729">[Validated_Card]</text><polygon fill="#A80036" points="94,133.5,84,137.5,94,141.5,90,137.5" style="stroke: #A80036; stroke-width: 1.0;"/><line style="stroke: #A80036; stroke-width: 1.0; stroke-dasharray: 2.0,2.0;" x1="88" x2="223" y1="137.5" y2="137.5"/><text fill="#000000" font-family="sans-serif" font-size="13" lengthAdjust="spacingAndGlyphs" textLength="90" x="100" y="132.4341">Request_PIN()</text><line style="stroke: #000000; stroke-width: 1.0; stroke-dasharray: 2.0,2.0;" x1="23" x2="678.5" y1="146.5" y2="146.5"/><text fill="#000000" font-family="sans-serif" font-size="11" font-weight="bold" lengthAdjust="spacingAndGlyphs" textLength="90" x="28" y="156.7104">[Validate_PIN]</text><polygon fill="#A80036" points="212,177.4375,222,181.4375,212,185.4375,216,181.4375" style="stroke: #A80036; stroke-width: 1.0;"/><line style="stroke: #A80036; stroke-width: 1.0;" x1="83" x2="218" y1="181.4375" y2="181.4375"/><text fill="#000000" font-family="sans-serif" font-size="13" lengthAdjust="spacingAndGlyphs" textLength="60" x="90" y="176.3716">Set_PIN()</text><polygon fill="#A80036" points="331,206.5703,341,210.5703,331,214.5703,335,210.5703" style="stroke: #A80036; stroke-width: 1.0;"/><line style="stroke: #A80036; stroke-width: 1.0;" x1="234" x2="337" y1="210.5703" y2="210.5703"/><text fill="#000000" font-family="sans-serif" font-size="13" lengthAdjust="spacingAndGlyphs" textLength="90" x="241" y="205.5044">Validate_PIN()</text><path d="M33,225.5703 L97,225.5703 L97,232.5703 L87,242.5703 L33,242.5703 L33,225.5703 " fill="#EEEEEE" style="stroke: #000000; stroke-width: 1.0;"/><rect fill="none" height="339.5938" style="stroke: #000000; stroke-width: 2.0;" width="635.5" x="33" y="225.5703"/><text fill="#000000" font-family="sans-serif" font-size="13" font-weight="bold" lengthAdjust="spacingAndGlyphs" textLength="19" x="48" y="238.6372">alt</text><text fill="#000000" font-family="sans-serif" font-size="11" font-weight="bold" lengthAdjust="spacingAndGlyphs" textLength="69" x="112" y="237.7808">[Valid_PIN]</text><polygon fill="#A80036" points="245,259.8359,235,263.8359,245,267.8359,241,263.8359" style="stroke: #A80036; stroke-width: 1.0;"/><line style="stroke: #A80036; stroke-width: 1.0; stroke-dasharray: 2.0,2.0;" x1="239" x2="342" y1="263.8359" y2="263.8359"/><text fill="#000000" font-family="sans-serif" font-size="13" lengthAdjust="spacingAndGlyphs" textLength="28" x="251" y="258.77">True</text><polygon fill="#A80036" points="94,288.9688,84,292.9688,94,296.9688,90,292.9688" style="stroke: #A80036; stroke-width: 1.0;"/><line style="stroke: #A80036; stroke-width: 1.0; stroke-dasharray: 2.0,2.0;" x1="88" x2="223" y1="292.9688" y2="292.9688"/><text fill="#000000" font-family="sans-serif" font-size="13" lengthAdjust="spacingAndGlyphs" textLength="101" x="100" y="287.9028">Set_UI_Option()</text><path d="M43,307.9688 L107,307.9688 L107,314.9688 L97,324.9688 L43,324.9688 L43,307.9688 " fill="#EEEEEE" style="stroke: #000000; stroke-width: 1.0;"/><rect fill="none" height="250.1953" style="stroke: #000000; stroke-width: 2.0;" width="615.5" x="43" y="307.9688"/><text fill="#000000" font-family="sans-serif" font-size="13" font-weight="bold" lengthAdjust="spacingAndGlyphs" textLength="19" x="58" y="321.0356">alt</text><text fill="#000000" font-family="sans-serif" font-size="11" font-weight="bold" lengthAdjust="spacingAndGlyphs" textLength="109" x="122" y="320.1792">[Make_Deposit()]</text><polygon fill="#A80036" points="489,342.2344,499,346.2344,489,350.2344,493,346.2344" style="stroke: #A80036; stroke-width: 1.0;"/><line style="stroke: #A80036; stroke-width: 1.0;" x1="83" x2="495" y1="346.2344" y2="346.2344"/><text fill="#000000" font-family="sans-serif" font-size="13" lengthAdjust="spacingAndGlyphs" textLength="100" x="90" y="341.1685">Make_Deposit()</text><polygon fill="#A80036" points="369,371.3672,359,375.3672,369,379.3672,365,375.3672" style="stroke: #A80036; stroke-width: 1.0;"/><line style="stroke: #A80036; stroke-width: 1.0;" x1="363" x2="500" y1="375.3672" y2="375.3672"/><text fill="#000000" font-family="sans-serif" font-size="13" lengthAdjust="spacingAndGlyphs" textLength="88" x="375" y="370.3013">Lock_Server()</text><polygon fill="#A80036" points="489,400.5,499,404.5,489,408.5,493,404.5" style="stroke: #A80036; stroke-width: 1.0;"/><line style="stroke: #A80036; stroke-width: 1.0; stroke-dasharray: 2.0,2.0;" x1="358" x2="495" y1="404.5" y2="404.5"/><text fill="#000000" font-family="sans-serif" font-size="13" lengthAdjust="spacingAndGlyphs" textLength="55" x="365" y="399.4341">Locked()</text><polygon fill="#A80036" points="369,429.6328,359,433.6328,369,437.6328,365,433.6328" style="stroke: #A80036; stroke-width: 1.0;"/><line style="stroke: #A80036; stroke-width: 1.0;" x1="363" x2="500" y1="433.6328" y2="433.6328"/><text fill="#000000" font-family="sans-serif" font-size="13" lengthAdjust="spacingAndGlyphs" textLength="100" x="375" y="428.5669">Make_Deposit()</text><polygon fill="#A80036" points="573,458.7656,583,462.7656,573,466.7656,577,462.7656" style="stroke: #A80036; stroke-width: 1.0;"/><line style="stroke: #A80036; stroke-width: 1.0;" x1="358" x2="579" y1="462.7656" y2="462.7656"/><text fill="#000000" font-family="sans-serif" font-size="13" lengthAdjust="spacingAndGlyphs" textLength="90" x="365" y="457.6997">Set_Amount()</text><polygon fill="#A80036" points="369,487.8984,359,491.8984,369,495.8984,365,491.8984" style="stroke: #A80036; stroke-width: 1.0;"/><line style="stroke: #A80036; stroke-width: 1.0; stroke-dasharray: 2.0,2.0;" x1="363" x2="589" y1="491.8984" y2="491.8984"/><text fill="#000000" font-family="sans-serif" font-size="13" lengthAdjust="spacingAndGlyphs" textLength="136" x="375" y="486.8325">Completed_Deposit()</text><polygon fill="#A80036" points="489,517.0313,499,521.0313,489,525.0313,493,521.0313" style="stroke: #A80036; stroke-width: 1.0;"/><line style="stroke: #A80036; stroke-width: 1.0; stroke-dasharray: 2.0,2.0;" x1="353" x2="495" y1="521.0313" y2="521.0313"/><text fill="#000000" font-family="sans-serif" font-size="13" lengthAdjust="spacingAndGlyphs" textLength="69" x="360" y="515.9653">Unlocked()</text><polygon fill="#A80036" points="94,546.1641,84,550.1641,94,554.1641,90,550.1641" style="stroke: #A80036; stroke-width: 1.0;"/><line style="stroke: #A80036; stroke-width: 1.0; stroke-dasharray: 2.0,2.0;" x1="88" x2="505" y1="550.1641" y2="550.1641"/><text fill="#000000" font-family="sans-serif" font-size="13" lengthAdjust="spacingAndGlyphs" textLength="136" x="100" y="545.0981">Deposit_Completed()</text><line style="stroke: #000000; stroke-width: 1.0; stroke-dasharray: 2.0,2.0;" x1="23" x2="678.5" y1="573.1641" y2="573.1641"/><text fill="#000000" font-family="sans-serif" font-size="11" font-weight="bold" lengthAdjust="spacingAndGlyphs" textLength="80" x="28" y="583.3745">[Invalid_PIN]</text><polygon fill="#A80036" points="245,604.1016,235,608.1016,245,612.1016,241,608.1016" style="stroke: #A80036; stroke-width: 1.0;"/><line style="stroke: #A80036; stroke-width: 1.0; stroke-dasharray: 2.0,2.0;" x1="239" x2="347" y1="608.1016" y2="608.1016"/><text fill="#000000" font-family="sans-serif" font-size="13" lengthAdjust="spacingAndGlyphs" textLength="78" x="251" y="603.0356">Invalid_PIN()</text><line style="stroke: #000000; stroke-width: 1.0; stroke-dasharray: 2.0,2.0;" x1="23" x2="678.5" y1="617.1016" y2="617.1016"/><text fill="#000000" font-family="sans-serif" font-size="11" font-weight="bold" lengthAdjust="spacingAndGlyphs" textLength="175" x="28" y="627.312">[Failure of Validate_Card()]</text><polygon fill="#A80036" points="89,648.0391,79,652.0391,89,656.0391,85,652.0391" style="stroke: #A80036; stroke-width: 1.0;"/><line style="stroke: #A80036; stroke-width: 1.0; stroke-dasharray: 2.0,2.0;" x1="83" x2="228" y1="652.0391" y2="652.0391"/><text fill="#000000" font-family="sans-serif" font-size="13" lengthAdjust="spacingAndGlyphs" textLength="117" x="95" y="646.9731">Falied_Validation()</text><polygon fill="#A80036" points="212,684.1719,222,688.1719,212,692.1719,216,688.1719" style="stroke: #A80036; stroke-width: 1.0;"/><line style="stroke: #A80036; stroke-width: 1.0;" x1="83" x2="218" y1="688.1719" y2="688.1719"/><text fill="#000000" font-family="sans-serif" font-size="13" lengthAdjust="spacingAndGlyphs" textLength="99" x="90" y="683.106">Validate_Card()</text><path d="M13,703.1719 L77,703.1719 L77,710.1719 L67,720.1719 L13,720.1719 L13,703.1719 " fill="#EEEEEE" style="stroke: #000000; stroke-width: 1.0;"/><rect fill="none" height="679.8125" style="stroke: #000000; stroke-width: 2.0;" width="675.5" x="13" y="703.1719"/><text fill="#000000" font-family="sans-serif" font-size="13" font-weight="bold" lengthAdjust="spacingAndGlyphs" textLength="19" x="28" y="716.2388">alt</text><text fill="#000000" font-family="sans-serif" font-size="11" font-weight="bold" lengthAdjust="spacingAndGlyphs" textLength="109" x="92" y="715.3823">[Validate_Card()]</text><line style="stroke: #000000; stroke-width: 1.0; stroke-dasharray: 2.0,2.0;" x1="13" x2="688.5" y1="721.3047" y2="721.3047"/><text fill="#000000" font-family="sans-serif" font-size="11" font-weight="bold" lengthAdjust="spacingAndGlyphs" textLength="107" x="18" y="731.5151">[Validated_Card]</text><polygon fill="#A80036" points="94,752.2422,84,756.2422,94,760.2422,90,756.2422" style="stroke: #A80036; stroke-width: 1.0;"/><line style="stroke: #A80036; stroke-width: 1.0; stroke-dasharray: 2.0,2.0;" x1="88" x2="223" y1="756.2422" y2="756.2422"/><text fill="#000000" font-family="sans-serif" font-size="13" lengthAdjust="spacingAndGlyphs" textLength="90" x="100" y="751.1763">Request_PIN()</text><line style="stroke: #000000; stroke-width: 1.0; stroke-dasharray: 2.0,2.0;" x1="13" x2="688.5" y1="765.2422" y2="765.2422"/><text fill="#000000" font-family="sans-serif" font-size="11" font-weight="bold" lengthAdjust="spacingAndGlyphs" textLength="90" x="18" y="775.4526">[Validate_PIN]</text><polygon fill="#A80036" points="212,796.1797,222,800.1797,212,804.1797,216,800.1797" style="stroke: #A80036; stroke-width: 1.0;"/><line style="stroke: #A80036; stroke-width: 1.0;" x1="83" x2="218" y1="800.1797" y2="800.1797"/><text fill="#000000" font-family="sans-serif" font-size="13" lengthAdjust="spacingAndGlyphs" textLength="60" x="90" y="795.1138">Set_PIN()</text><polygon fill="#A80036" points="331,825.3125,341,829.3125,331,833.3125,335,829.3125" style="stroke: #A80036; stroke-width: 1.0;"/><line style="stroke: #A80036; stroke-width: 1.0;" x1="234" x2="337" y1="829.3125" y2="829.3125"/><text fill="#000000" font-family="sans-serif" font-size="13" lengthAdjust="spacingAndGlyphs" textLength="90" x="241" y="824.2466">Validate_PIN()</text><path d="M23,844.3125 L87,844.3125 L87,851.3125 L77,861.3125 L23,861.3125 L23,844.3125 " fill="#EEEEEE" style="stroke: #000000; stroke-width: 1.0;"/><rect fill="none" height="443.7969" style="stroke: #000000; stroke-width: 2.0;" width="655.5" x="23" y="844.3125"/><text fill="#000000" font-family="sans-serif" font-size="13" font-weight="bold" lengthAdjust="spacingAndGlyphs" textLength="19" x="38" y="857.3794">alt</text><text fill="#000000" font-family="sans-serif" font-size="11" font-weight="bold" lengthAdjust="spacingAndGlyphs" textLength="69" x="102" y="856.5229">[Valid_PIN]</text><polygon fill="#A80036" points="245,878.5781,235,882.5781,245,886.5781,241,882.5781" style="stroke: #A80036; stroke-width: 1.0;"/><line style="stroke: #A80036; stroke-width: 1.0; stroke-dasharray: 2.0,2.0;" x1="239" x2="342" y1="882.5781" y2="882.5781"/><text fill="#000000" font-family="sans-serif" font-size="13" lengthAdjust="spacingAndGlyphs" textLength="28" x="251" y="877.5122">True</text><polygon fill="#A80036" points="94,907.7109,84,911.7109,94,915.7109,90,911.7109" style="stroke: #A80036; stroke-width: 1.0;"/><line style="stroke: #A80036; stroke-width: 1.0; stroke-dasharray: 2.0,2.0;" x1="88" x2="223" y1="911.7109" y2="911.7109"/><text fill="#000000" font-family="sans-serif" font-size="13" lengthAdjust="spacingAndGlyphs" textLength="101" x="100" y="906.645">Set_UI_Option()</text><path d="M33,926.7109 L97,926.7109 L97,933.7109 L87,943.7109 L33,943.7109 L33,926.7109 " fill="#EEEEEE" style="stroke: #000000; stroke-width: 1.0;"/><rect fill="none" height="354.3984" style="stroke: #000000; stroke-width: 2.0;" width="635.5" x="33" y="926.7109"/><text fill="#000000" font-family="sans-serif" font-size="13" font-weight="bold" lengthAdjust="spacingAndGlyphs" textLength="19" x="48" y="939.7778">alt</text><text fill="#000000" font-family="sans-serif" font-size="11" font-weight="bold" lengthAdjust="spacingAndGlyphs" textLength="134" x="112" y="938.9214">[Make_Withdrawal()]</text><polygon fill="#A80036" points="489,960.9766,499,964.9766,489,968.9766,493,964.9766" style="stroke: #A80036; stroke-width: 1.0;"/><line style="stroke: #A80036; stroke-width: 1.0;" x1="83" x2="495" y1="964.9766" y2="964.9766"/><text fill="#000000" font-family="sans-serif" font-size="13" lengthAdjust="spacingAndGlyphs" textLength="119" x="90" y="959.9106">Make_Withdrawal()</text><polygon fill="#A80036" points="369,990.1094,359,994.1094,369,998.1094,365,994.1094" style="stroke: #A80036; stroke-width: 1.0;"/><line style="stroke: #A80036; stroke-width: 1.0;" x1="363" x2="500" y1="994.1094" y2="994.1094"/><text fill="#000000" font-family="sans-serif" font-size="13" lengthAdjust="spacingAndGlyphs" textLength="88" x="375" y="989.0435">Lock_Server()</text><polygon fill="#A80036" points="489,1019.2422,499,1023.2422,489,1027.2422,493,1023.2422" style="stroke: #A80036; stroke-width: 1.0;"/><line style="stroke: #A80036; stroke-width: 1.0; stroke-dasharray: 2.0,2.0;" x1="358" x2="495" y1="1023.2422" y2="1023.2422"/><text fill="#000000" font-family="sans-serif" font-size="13" lengthAdjust="spacingAndGlyphs" textLength="55" x="365" y="1018.1763">Locked()</text><polygon fill="#A80036" points="369,1048.375,359,1052.375,369,1056.375,365,1052.375" style="stroke: #A80036; stroke-width: 1.0;"/><line style="stroke: #A80036; stroke-width: 1.0;" x1="363" x2="500" y1="1052.375" y2="1052.375"/><text fill="#000000" font-family="sans-serif" font-size="13" lengthAdjust="spacingAndGlyphs" textLength="119" x="375" y="1047.3091">Make_Withdrawal()</text><polygon fill="#A80036" points="573,1077.5078,583,1081.5078,573,1085.5078,577,1081.5078" style="stroke: #A80036; stroke-width: 1.0;"/><line style="stroke: #A80036; stroke-width: 1.0;" x1="358" x2="579" y1="1081.5078" y2="1081.5078"/><text fill="#000000" font-family="sans-serif" font-size="13" lengthAdjust="spacingAndGlyphs" textLength="125" x="365" y="1076.4419">Withdraw_Amount()</text><path d="M43,1096.5078 L107,1096.5078 L107,1103.5078 L97,1113.5078 L43,1113.5078 L43,1096.5078 " fill="#EEEEEE" style="stroke: #000000; stroke-width: 1.0;"/><rect fill="none" height="177.6016" style="stroke: #000000; stroke-width: 2.0;" width="615.5" x="43" y="1096.5078"/><text fill="#000000" font-family="sans-serif" font-size="13" font-weight="bold" lengthAdjust="spacingAndGlyphs" textLength="19" x="58" y="1109.5747">alt</text><text fill="#000000" font-family="sans-serif" font-size="11" font-weight="bold" lengthAdjust="spacingAndGlyphs" textLength="163" x="122" y="1108.7183">[Succeessful withdrawal]</text><polygon fill="#A80036" points="369,1130.7734,359,1134.7734,369,1138.7734,365,1134.7734" style="stroke: #A80036; stroke-width: 1.0;"/><line style="stroke: #A80036; stroke-width: 1.0; stroke-dasharray: 2.0,2.0;" x1="363" x2="584" y1="1134.7734" y2="1134.7734"/><text fill="#000000" font-family="sans-serif" font-size="13" lengthAdjust="spacingAndGlyphs" textLength="155" x="375" y="1129.7075">Completed_Withdrawal()</text><polygon fill="#A80036" points="369,1159.9063,359,1163.9063,369,1167.9063,365,1163.9063" style="stroke: #A80036; stroke-width: 1.0;"/><line style="stroke: #A80036; stroke-width: 1.0; stroke-dasharray: 2.0,2.0;" x1="363" x2="589" y1="1163.9063" y2="1163.9063"/><text fill="#000000" font-family="sans-serif" font-size="13" lengthAdjust="spacingAndGlyphs" textLength="122" x="375" y="1158.8403">Failed_Withdrawal()</text><polygon fill="#A80036" points="489,1189.0391,499,1193.0391,489,1197.0391,493,1193.0391" style="stroke: #A80036; stroke-width: 1.0;"/><line style="stroke: #A80036; stroke-width: 1.0; stroke-dasharray: 2.0,2.0;" x1="353" x2="495" y1="1193.0391" y2="1193.0391"/><text fill="#000000" font-family="sans-serif" font-size="13" lengthAdjust="spacingAndGlyphs" textLength="69" x="360" y="1187.9731">Unlocked()</text><polygon fill="#A80036" points="94,1218.1719,84,1222.1719,94,1226.1719,90,1222.1719" style="stroke: #A80036; stroke-width: 1.0;"/><line style="stroke: #A80036; stroke-width: 1.0; stroke-dasharray: 2.0,2.0;" x1="88" x2="500" y1="1222.1719" y2="1222.1719"/><text fill="#000000" font-family="sans-serif" font-size="13" lengthAdjust="spacingAndGlyphs" textLength="155" x="100" y="1217.106">Withdrawal_Completed()</text><line style="stroke: #000000; stroke-width: 1.0; stroke-dasharray: 2.0,2.0;" x1="43" x2="658.5" y1="1231.1719" y2="1231.1719"/><text fill="#000000" font-family="sans-serif" font-size="11" font-weight="bold" lengthAdjust="spacingAndGlyphs" textLength="148" x="48" y="1241.3823">[Failure of withdrawal]</text><polygon fill="#A80036" points="94,1262.1094,84,1266.1094,94,1270.1094,90,1266.1094" style="stroke: #A80036; stroke-width: 1.0;"/><line style="stroke: #A80036; stroke-width: 1.0;" x1="88" x2="500" y1="1266.1094" y2="1266.1094"/><text fill="#000000" font-family="sans-serif" font-size="13" lengthAdjust="spacingAndGlyphs" textLength="122" x="100" y="1261.0435">Failed_Withdrawal()</text><line style="stroke: #000000; stroke-width: 1.0; stroke-dasharray: 2.0,2.0;" x1="13" x2="688.5" y1="1296.1094" y2="1296.1094"/><text fill="#000000" font-family="sans-serif" font-size="11" font-weight="bold" lengthAdjust="spacingAndGlyphs" textLength="80" x="18" y="1306.3198">[Invalid_PIN]</text><polygon fill="#A80036" points="245,1327.0469,235,1331.0469,245,1335.0469,241,1331.0469" style="stroke: #A80036; stroke-width: 1.0;"/><line style="stroke: #A80036; stroke-width: 1.0; stroke-dasharray: 2.0,2.0;" x1="239" x2="347" y1="1331.0469" y2="1331.0469"/><text fill="#000000" font-family="sans-serif" font-size="13" lengthAdjust="spacingAndGlyphs" textLength="78" x="251" y="1325.981">Invalid_PIN()</text><line style="stroke: #000000; stroke-width: 1.0; stroke-dasharray: 2.0,2.0;" x1="13" x2="688.5" y1="1340.0469" y2="1340.0469"/><text fill="#000000" font-family="sans-serif" font-size="11" font-weight="bold" lengthAdjust="spacingAndGlyphs" textLength="175" x="18" y="1350.2573">[Failure of Validate_Card()]</text><polygon fill="#A80036" points="89,1370.9844,79,1374.9844,89,1378.9844,85,1374.9844" style="stroke: #A80036; stroke-width: 1.0;"/><line style="stroke: #A80036; stroke-width: 1.0; stroke-dasharray: 2.0,2.0;" x1="83" x2="228" y1="1374.9844" y2="1374.9844"/><text fill="#000000" font-family="sans-serif" font-size="13" lengthAdjust="spacingAndGlyphs" textLength="117" x="95" y="1369.9185">Falied_Validation()</text><polygon fill="#A80036" points="212,1407.1172,222,1411.1172,212,1415.1172,216,1411.1172" style="stroke: #A80036; stroke-width: 1.0;"/><line style="stroke: #A80036; stroke-width: 1.0;" x1="83" x2="218" y1="1411.1172" y2="1411.1172"/><text fill="#000000" font-family="sans-serif" font-size="13" lengthAdjust="spacingAndGlyphs" textLength="99" x="90" y="1406.0513">Validate_Card()</text><line style="stroke: #000000; stroke-width: 1.0; stroke-dasharray: 2.0,2.0;" x1="23" x2="678.5" y1="1444.25" y2="1444.25"/><text fill="#000000" font-family="sans-serif" font-size="11" font-weight="bold" lengthAdjust="spacingAndGlyphs" textLength="107" x="28" y="1454.4604">[Validated_Card]</text><polygon fill="#A80036" points="94,1475.1875,84,1479.1875,94,1483.1875,90,1479.1875" style="stroke: #A80036; stroke-width: 1.0;"/><line style="stroke: #A80036; stroke-width: 1.0; stroke-dasharray: 2.0,2.0;" x1="88" x2="223" y1="1479.1875" y2="1479.1875"/><text fill="#000000" font-family="sans-serif" font-size="13" lengthAdjust="spacingAndGlyphs" textLength="90" x="100" y="1474.1216">Request_PIN()</text><line style="stroke: #000000; stroke-width: 1.0; stroke-dasharray: 2.0,2.0;" x1="23" x2="678.5" y1="1488.1875" y2="1488.1875"/><text fill="#000000" font-family="sans-serif" font-size="11" font-weight="bold" lengthAdjust="spacingAndGlyphs" textLength="90" x="28" y="1498.3979">[Validate_PIN]</text><polygon fill="#A80036" points="212,1519.125,222,1523.125,212,1527.125,216,1523.125" style="stroke: #A80036; stroke-width: 1.0;"/><line style="stroke: #A80036; stroke-width: 1.0;" x1="83" x2="218" y1="1523.125" y2="1523.125"/><text fill="#000000" font-family="sans-serif" font-size="13" lengthAdjust="spacingAndGlyphs" textLength="60" x="90" y="1518.0591">Set_PIN()</text><polygon fill="#A80036" points="331,1548.2578,341,1552.2578,331,1556.2578,335,1552.2578" style="stroke: #A80036; stroke-width: 1.0;"/><line style="stroke: #A80036; stroke-width: 1.0;" x1="234" x2="337" y1="1552.2578" y2="1552.2578"/><text fill="#000000" font-family="sans-serif" font-size="13" lengthAdjust="spacingAndGlyphs" textLength="90" x="241" y="1547.1919">Validate_PIN()</text><path d="M33,1567.2578 L97,1567.2578 L97,1574.2578 L87,1584.2578 L33,1584.2578 L33,1567.2578 " fill="#EEEEEE" style="stroke: #000000; stroke-width: 1.0;"/><rect fill="none" height="339.5938" style="stroke: #000000; stroke-width: 2.0;" width="635.5" x="33" y="1567.2578"/><text fill="#000000" font-family="sans-serif" font-size="13" font-weight="bold" lengthAdjust="spacingAndGlyphs" textLength="19" x="48" y="1580.3247">alt</text><text fill="#000000" font-family="sans-serif" font-size="11" font-weight="bold" lengthAdjust="spacingAndGlyphs" textLength="69" x="112" y="1579.4683">[Valid_PIN]</text><polygon fill="#A80036" points="245,1601.5234,235,1605.5234,245,1609.5234,241,1605.5234" style="stroke: #A80036; stroke-width: 1.0;"/><line style="stroke: #A80036; stroke-width: 1.0; stroke-dasharray: 2.0,2.0;" x1="239" x2="342" y1="1605.5234" y2="1605.5234"/><text fill="#000000" font-family="sans-serif" font-size="13" lengthAdjust="spacingAndGlyphs" textLength="28" x="251" y="1600.4575">True</text><polygon fill="#A80036" points="94,1630.6563,84,1634.6563,94,1638.6563,90,1634.6563" style="stroke: #A80036; stroke-width: 1.0;"/><line style="stroke: #A80036; stroke-width: 1.0; stroke-dasharray: 2.0,2.0;" x1="88" x2="223" y1="1634.6563" y2="1634.6563"/><text fill="#000000" font-family="sans-serif" font-size="13" lengthAdjust="spacingAndGlyphs" textLength="101" x="100" y="1629.5903">Set_UI_Option()</text><path d="M43,1649.6563 L107,1649.6563 L107,1656.6563 L97,1666.6563 L43,1666.6563 L43,1649.6563 " fill="#EEEEEE" style="stroke: #000000; stroke-width: 1.0;"/><rect fill="none" height="250.1953" style="stroke: #000000; stroke-width: 2.0;" width="615.5" x="43" y="1649.6563"/><text fill="#000000" font-family="sans-serif" font-size="13" font-weight="bold" lengthAdjust="spacingAndGlyphs" textLength="19" x="58" y="1662.7231">alt</text><text fill="#000000" font-family="sans-serif" font-size="11" font-weight="bold" lengthAdjust="spacingAndGlyphs" textLength="117" x="122" y="1661.8667">[Check_Balance()]</text><polygon fill="#A80036" points="489,1683.9219,499,1687.9219,489,1691.9219,493,1687.9219" style="stroke: #A80036; stroke-width: 1.0;"/><line style="stroke: #A80036; stroke-width: 1.0;" x1="83" x2="495" y1="1687.9219" y2="1687.9219"/><text fill="#000000" font-family="sans-serif" font-size="13" lengthAdjust="spacingAndGlyphs" textLength="107" x="90" y="1682.856">Check_Balance()</text><polygon fill="#A80036" points="369,1713.0547,359,1717.0547,369,1721.0547,365,1717.0547" style="stroke: #A80036; stroke-width: 1.0;"/><line style="stroke: #A80036; stroke-width: 1.0;" x1="363" x2="500" y1="1717.0547" y2="1717.0547"/><text fill="#000000" font-family="sans-serif" font-size="13" lengthAdjust="spacingAndGlyphs" textLength="88" x="375" y="1711.9888">Lock_Server()</text><polygon fill="#A80036" points="489,1742.1875,499,1746.1875,489,1750.1875,493,1746.1875" style="stroke: #A80036; stroke-width: 1.0;"/><line style="stroke: #A80036; stroke-width: 1.0; stroke-dasharray: 2.0,2.0;" x1="358" x2="495" y1="1746.1875" y2="1746.1875"/><text fill="#000000" font-family="sans-serif" font-size="13" lengthAdjust="spacingAndGlyphs" textLength="55" x="365" y="1741.1216">Locked()</text><polygon fill="#A80036" points="369,1771.3203,359,1775.3203,369,1779.3203,365,1775.3203" style="stroke: #A80036; stroke-width: 1.0;"/><line style="stroke: #A80036; stroke-width: 1.0;" x1="363" x2="500" y1="1775.3203" y2="1775.3203"/><text fill="#000000" font-family="sans-serif" font-size="13" lengthAdjust="spacingAndGlyphs" textLength="107" x="375" y="1770.2544">Check_Balance()</text><polygon fill="#A80036" points="573,1800.4531,583,1804.4531,573,1808.4531,577,1804.4531" style="stroke: #A80036; stroke-width: 1.0;"/><line style="stroke: #A80036; stroke-width: 1.0;" x1="358" x2="579" y1="1804.4531" y2="1804.4531"/><text fill="#000000" font-family="sans-serif" font-size="13" lengthAdjust="spacingAndGlyphs" textLength="91" x="365" y="1799.3872">Get_Amount()</text><polygon fill="#A80036" points="369,1829.5859,359,1833.5859,369,1837.5859,365,1833.5859" style="stroke: #A80036; stroke-width: 1.0;"/><line style="stroke: #A80036; stroke-width: 1.0; stroke-dasharray: 2.0,2.0;" x1="363" x2="589" y1="1833.5859" y2="1833.5859"/><text fill="#000000" font-family="sans-serif" font-size="13" lengthAdjust="spacingAndGlyphs" textLength="107" x="375" y="1828.52">Check_Balance()</text><polygon fill="#A80036" points="489,1858.7188,499,1862.7188,489,1866.7188,493,1862.7188" style="stroke: #A80036; stroke-width: 1.0;"/><line style="stroke: #A80036; stroke-width: 1.0; stroke-dasharray: 2.0,2.0;" x1="353" x2="495" y1="1862.7188" y2="1862.7188"/><text fill="#000000" font-family="sans-serif" font-size="13" lengthAdjust="spacingAndGlyphs" textLength="69" x="360" y="1857.6528">Unlocked()</text><polygon fill="#A80036" points="94,1887.8516,84,1891.8516,94,1895.8516,90,1891.8516" style="stroke: #A80036; stroke-width: 1.0;"/><line style="stroke: #A80036; stroke-width: 1.0; stroke-dasharray: 2.0,2.0;" x1="88" x2="505" y1="1891.8516" y2="1891.8516"/><text fill="#000000" font-family="sans-serif" font-size="13" lengthAdjust="spacingAndGlyphs" textLength="116" x="100" y="1886.7856">Current_Balance()</text><line style="stroke: #000000; stroke-width: 1.0; stroke-dasharray: 2.0,2.0;" x1="23" x2="678.5" y1="1914.8516" y2="1914.8516"/><text fill="#000000" font-family="sans-serif" font-size="11" font-weight="bold" lengthAdjust="spacingAndGlyphs" textLength="80" x="28" y="1925.062">[Invalid_PIN]</text><polygon fill="#A80036" points="245,1945.7891,235,1949.7891,245,1953.7891,241,1949.7891" style="stroke: #A80036; stroke-width: 1.0;"/><line style="stroke: #A80036; stroke-width: 1.0; stroke-dasharray: 2.0,2.0;" x1="239" x2="347" y1="1949.7891" y2="1949.7891"/><text fill="#000000" font-family="sans-serif" font-size="13" lengthAdjust="spacingAndGlyphs" textLength="78" x="251" y="1944.7231">Invalid_PIN()</text><polygon fill="#A80036" points="89,1989.7266,79,1993.7266,89,1997.7266,85,1993.7266" style="stroke: #A80036; stroke-width: 1.0;"/><line style="stroke: #A80036; stroke-width: 1.0; stroke-dasharray: 2.0,2.0;" x1="83" x2="228" y1="1993.7266" y2="1993.7266"/><text fill="#000000" font-family="sans-serif" font-size="13" lengthAdjust="spacingAndGlyphs" textLength="117" x="95" y="1988.6606">Falied_Validation()</text><!--MD5=[90ff99b8dd502d3e2f8ad0fa9859359d]
@startuml
User -> Validator: Validate_Card()
activate User
alt Validate_Card()
  activate Validator
  else Validated_Card
    Validator - -> User: Request_PIN()
  else Validate_PIN
  User -> Validator: Set_PIN()
  Validator -> Bank_Server:Validate_PIN()
  activate Bank_Server
  alt Valid_PIN
  Bank_Server - -> Validator: True
  Validator - -> User:Set_UI_Option()
 alt Make_Deposit()
  User -> UI: Make_Deposit()
activate UI
  UI-> Bank_Server:Lock_Server()
  activate Bank_Server
  Bank_Server- ->UI:Locked()
  UI->Bank_Server:Make_Deposit()
  Bank_Server->Bank_Account:Set_Amount()
  activate Bank_Account
  Bank_Account- ->Bank_Server:Completed_Deposit()
  deactivate Bank_Account
  Bank_Server- -> UI: Unlocked()
  deactivate Bank_Server
  UI- ->User:Deposit_Completed()
  deactivate UI
end
end
else Invalid_PIN
  Bank_Server- ->Validator:Invalid_PIN()
deactivate Bank_Server
  else Failure of Validate_Card()
  Validator - -> User: Falied_Validation()
  deactivate Validator
  deactivate User
end
User -> Validator: Validate_Card()
activate User
alt Validate_Card()
  activate Validator
  else Validated_Card
    Validator - -> User: Request_PIN()
  else Validate_PIN
  User -> Validator: Set_PIN()
  Validator -> Bank_Server:Validate_PIN()
  activate Bank_Server
  alt Valid_PIN
  Bank_Server - -> Validator: True
  Validator - -> User:Set_UI_Option()
 alt Make_Withdrawal()
  User -> UI: Make_Withdrawal()
activate UI
  UI-> Bank_Server:Lock_Server()
  activate Bank_Server
  Bank_Server- ->UI:Locked()
  UI->Bank_Server:Make_Withdrawal()
  Bank_Server->Bank_Account:Withdraw_Amount()
  activate Bank_Account
alt Succeessful withdrawal
  Bank_Account- ->Bank_Server:Completed_Withdrawal()
  Bank_Account- ->Bank_Server:Failed_Withdrawal()
  deactivate Bank_Account
  Bank_Server- -> UI: Unlocked()
  deactivate Bank_Server
  UI- ->User:Withdrawal_Completed()
else Failure of withdrawal
 UI-> User:Failed_Withdrawal()
end
  deactivate UI
end
end
  else Invalid_PIN
  Bank_Server- ->Validator:Invalid_PIN()
deactivate Bank_Server
  else Failure of Validate_Card()
  Validator - -> User: Falied_Validation()
  deactivate Validator
  deactivate User
end
User -> Validator: Validate_Card()
activate User
alt Validate_Card()
  activate Validator
  else Validated_Card
    Validator - -> User: Request_PIN()
  else Validate_PIN
  User -> Validator: Set_PIN()
  Validator -> Bank_Server:Validate_PIN()
  activate Bank_Server
  alt Valid_PIN
  Bank_Server - -> Validator: True
  Validator - -> User:Set_UI_Option()
 alt Check_Balance()
  User -> UI: Check_Balance()
activate UI
  UI-> Bank_Server:Lock_Server()
  activate Bank_Server
  Bank_Server- ->UI:Locked()
  UI->Bank_Server:Check_Balance()
  Bank_Server->Bank_Account:Get_Amount()
  activate Bank_Account
  Bank_Account- ->Bank_Server:Check_Balance()
  deactivate Bank_Account
  Bank_Server- -> UI: Unlocked()
  deactivate Bank_Server
  UI- ->User:Current_Balance()
  deactivate UI
end
end
  else Invalid_PIN
  Bank_Server- ->Validator:Invalid_PIN()
deactivate Bank_Server
  else Failure of Validate_Card()
  Validator - -> User: Falied_Validation()
  deactivate Validator
  deactivate User
@enduml

PlantUML version 1.2019.12(Sun Nov 03 10:24:54 UTC 2019)
(GPL source distribution)
Java Runtime: OpenJDK Runtime Environment
JVM: OpenJDK 64-Bit Server VM
Java Version: 1.8.0_232-heroku-b09
Operating System: Linux
Default Encoding: UTF-8
Language: en
Country: US
--></g></svg>